# xmcd
#
# Track frame offsets:
#	150
#	16115
#	33142
#	58300
#
# Disc length: 1109 seconds
# Revision: 0
# Processed by: cddbd v1.5.2PL0 Copyright (c) Steve Scherf et al.
# Submitted via: dBpowerAMP V12.0
#
DISCID=27045304
DTITLE=Mike Pickering - Colour My Life
DYEAR=1991
DGENRE=House
TTITLE0=Colour My Life [Short Oakenfold/Osborne Mix]
TTITLE1=Colour My Life [M People Edit]
TTITLE2=Colour My Life [Oakenfold/Osborne Mix]
TTITLE3=Colour My Life [Cuba Mix]
EXTD=
EXTT0=
EXTT1=
EXTT2=
EXTT3=
PLAYORDER=
